<svg width="39" height="24" viewBox="0 0 39 24" fill="none" xmlns="http://www.w3.org/2000/svg">
<g clip-path="url(#clip0_1314_9)">
<path d="M26.856 11.2746C26.6668 11.0507 26.3831 10.9388 26.0993 10.9388H7.40201L6.99212 9.76326C6.61376 8.69971 5.54174 8 4.28054 8H1.34824C0.812234 8 0.402344 8.36385 0.402344 8.83965C0.402344 9.31545 0.812234 9.6793 1.34824 9.6793H4.28054C4.69043 9.6793 5.06879 9.90321 5.19491 10.2671L8.63168 19.895L8.60015 19.979C8.19026 20.8466 8.28485 21.8262 8.85239 22.6379C9.45146 23.4216 10.4289 23.8974 11.5009 23.8974H24.4282C24.9642 23.8974 25.3741 23.5335 25.3741 23.0577C25.3741 22.5819 24.9642 22.2181 24.4282 22.2181H11.5009C11.0595 22.2181 10.6811 22.0222 10.4604 21.7143C10.2397 21.4064 10.1766 21.0146 10.3343 20.6787H21.4013C22.9148 20.6787 24.239 19.8111 24.712 18.5236L27.0137 12.0303C27.0767 11.7784 27.0137 11.4985 26.856 11.2746ZM21.3698 18.9994H10.2712L8.00108 12.6181H24.8066L22.9148 18.0198C22.6625 18.6076 22.0635 18.9994 21.3698 18.9994Z" fill="#D92419"/>
</g>
<path d="M39 7.5C39 11.6431 35.6418 15 31.5 15C27.3582 15 24 11.6431 24 7.5C24 3.35936 27.3582 0 31.5 0C35.6418 0 39 3.35936 39 7.5ZM31.5 9.0121C30.7317 9.0121 30.1089 9.63493 30.1089 10.4032C30.1089 11.1715 30.7317 11.7944 31.5 11.7944C32.2683 11.7944 32.8911 11.1715 32.8911 10.4032C32.8911 9.63493 32.2683 9.0121 31.5 9.0121ZM30.1792 4.01171L30.4036 8.12462C30.4141 8.31708 30.5732 8.46774 30.7659 8.46774H32.2341C32.4268 8.46774 32.5859 8.31708 32.5964 8.12462L32.8208 4.01171C32.8321 3.80383 32.6666 3.62903 32.4584 3.62903H30.5416C30.3334 3.62903 30.1679 3.80383 30.1792 4.01171Z" fill="#D92419"/>
<defs>
<clipPath id="clip0_1314_9">
<rect width="28" height="16" fill="white" transform="translate(0 8)"/>
</clipPath>
</defs>
</svg>
